<?xml version="1.0" encoding="UTF-8" standalone="no"?>
<!DOCTYPE svg PUBLIC "-//W3C//DTD SVG 1.1//EN" "http://www.w3.org/Graphics/SVG/1.1/DTD/svg11.dtd">
<svg width="100%" height="100%" viewBox="0 0 309 261" version="1.1" xmlns="http://www.w3.org/2000/svg" xmlns:xlink="http://www.w3.org/1999/xlink" xml:space="preserve" xmlns:serif="http://www.serif.com/" style="fill-rule:evenodd;clip-rule:evenodd;stroke-linejoin:round;stroke-miterlimit:2;">
    <g transform="matrix(1,0,0,1,-611.947,-1588.34)">
        <g>
            <g transform="matrix(8.33333,0,0,8.33333,0,-3414.75)">
                <path d="M94.441,628.581C96.281,628.371 98.007,627.695 101.306,625.455C102.948,624.34 104.677,623.066 107.454,622.653C108.111,622.555 108.762,622.603 109.386,622.745L110.462,620.509C109.906,620.347 109.312,620.237 108.689,620.214C105.428,620.098 100.322,625.275 98.138,626.596C96.137,627.808 94.025,628.399 91.948,628.433C89.871,628.399 87.759,627.808 85.758,626.596C83.574,625.275 78.468,620.098 75.207,620.214C74.585,620.237 73.99,620.347 73.434,620.509L74.51,622.745C75.134,622.603 75.785,622.555 76.442,622.653C79.219,623.066 80.948,624.34 82.59,625.455C85.889,627.695 87.615,628.371 89.455,628.581C89.957,628.638 90.353,628.685 90.665,628.722C90.631,628.73 90.597,628.738 90.563,628.746C89.427,628.753 88.523,628.644 86.834,628.126C86.226,627.94 85.299,627.578 84.425,627.064C83.052,626.257 81.591,625.204 79.979,624.442C78.209,623.606 76.543,623.273 75.019,623.539C74.98,623.546 74.941,623.553 74.902,623.56L75.738,625.297C75.753,625.296 75.767,625.294 75.781,625.292C78.491,625.009 79.855,625.168 81.679,626.231C85.18,628.27 87.611,628.97 89.824,628.995C88.653,629.493 87.748,630.409 87.351,631.528C87.319,631.619 87.426,631.672 87.49,631.601C88.571,630.391 89.988,629.376 91.851,629.376C91.883,629.376 91.916,629.377 91.948,629.378C91.981,629.377 92.013,629.376 92.045,629.376C93.908,629.376 95.325,630.391 96.406,631.601C96.47,631.672 96.577,631.619 96.545,631.528C96.148,630.409 95.243,629.493 94.072,628.995C96.286,628.97 98.717,628.27 102.217,626.231C104.041,625.168 105.405,625.009 108.115,625.292C108.13,625.294 108.143,625.296 108.158,625.297L108.994,623.56C108.955,623.553 108.916,623.546 108.877,623.539C107.354,623.273 105.687,623.606 103.917,624.442C102.306,625.204 100.844,626.257 99.471,627.064C98.597,627.578 97.67,627.94 97.062,628.126C95.373,628.644 94.469,628.753 93.333,628.746C93.3,628.738 93.266,628.73 93.231,628.722C93.543,628.685 93.939,628.638 94.441,628.581" style="fill:rgb(176,134,60);fill-rule:nonzero;"/>
            </g>
            <g transform="matrix(8.33333,0,0,8.33333,0,-3603.65)">
                <path d="M84.729,630.282C86.214,629.071 88.088,628.282 90.132,627.988L90.132,626.165C85.15,626.794 81.186,629.967 80.302,634.001L88.324,634.001L88.324,646.132C83.69,645.014 80.112,641.806 79.162,637.82L77.312,637.82C78.393,643.306 83.609,647.594 90.132,648.273L90.132,632.193L82.996,632.193C83.443,631.502 84.023,630.858 84.729,630.282" style="fill:rgb(176,134,60);fill-rule:nonzero;"/>
            </g>
            <g transform="matrix(8.33333,0,0,8.33333,0,-3659.16)">
                <path d="M77.161,643.461L85.686,643.461L85.686,648.474C85.352,648.263 85.032,648.033 84.729,647.786C83.568,646.839 82.742,645.706 82.3,644.481L80.404,644.481C81.259,647.584 83.95,650.126 87.494,651.306L87.494,641.653L78.94,641.653C79.342,636.502 84.077,632.319 90.132,631.613L90.132,629.794C82.791,630.559 77.105,635.895 77.105,642.365C77.105,642.734 77.124,643.1 77.161,643.461Z" style="fill:rgb(176,134,60);fill-rule:nonzero;"/>
            </g>
            <g transform="matrix(8.33333,0,0,8.33333,0,-3654.02)">
                <path d="M96.376,638.238L93.259,638.238L93.259,630.946C94.342,631.036 95.387,631.237 96.376,631.536L96.376,638.238ZM93.259,649.525L93.259,640.045L96.376,640.045L96.376,648.781C95.401,649.161 94.351,649.413 93.259,649.525M98.184,649.946L98.184,630.253C96.287,629.502 94.175,629.083 91.948,629.083C91.782,629.083 91.617,629.086 91.452,629.091L91.452,651.391C91.616,651.396 91.782,651.4 91.948,651.4C94.235,651.4 96.372,650.867 98.184,649.946" style="fill:rgb(176,134,60);fill-rule:nonzero;"/>
            </g>
            <g transform="matrix(8.33333,0,0,8.33333,0,-3615.46)">
                <path d="M106.791,637.12C106.791,636.518 106.742,635.926 106.646,635.346L101.022,635.346L101.022,629.333C102.691,630.683 103.928,632.4 104.545,634.326L106.428,634.326C105.493,630.782 102.815,627.8 99.204,626.07L99.204,628.104C99.207,628.107 99.211,628.109 99.215,628.111L99.215,637.154L104.983,637.154C104.961,643.125 99.122,647.977 91.948,647.977C91.782,647.977 91.616,647.974 91.452,647.968L91.452,649.777C91.617,649.781 91.782,649.785 91.948,649.785C100.145,649.785 106.791,644.114 106.791,637.12" style="fill:rgb(176,134,60);fill-rule:nonzero;"/>
            </g>
        </g>
    </g>
</svg>
